<?xml version="1.0" encoding="UTF-8"?>
<svg id="Layer_2" xmlns="http://www.w3.org/2000/svg" viewBox="0 0 195.63 40.88">
  <defs>
    <style>
      .cls-1 {
        fill: #fff;
      }
    </style>
  </defs>
  <g id="Layer_1-2" data-name="Layer_1">
    <path class="cls-1" d="M42.66,0h-26.35C5.34,0,0,3.23,0,9.87v21.42c0,6.46,5.16,9.59,15.76,9.59h26.81c1.22,0,1.76-.61,1.76-1.99,0-1.8-.94-2.03-1.76-2.03H15.99c-7.08,0-10.68-1.97-10.68-5.85v-8.38h37.26c.82,0,1.67-.23,1.67-1.96,0-1.83-.89-2.06-1.67-2.06H5.31v-8.74c0-3.93,4.37-5.85,13.35-5.85h24c.82,0,1.67-.23,1.67-1.94C44.33.24,43.44,0,42.66,0Z"/>
    <path class="cls-1" d="M191.85,40.61c.97.47,2.1.33,3-.35.53-.4.78-.88.78-1.51,0-.37-.18-.82-.55-1.34l-.55-.79h.13L174.26,1.98c-.45-.65-1-1.17-1.63-1.49-1.36-.68-2.62-.63-3.8.02-.6.33-1.13.83-1.57,1.49l-20.75,35.42h-.02s.03,0,.03,0c-.16.21-.27.42-.31.61-.05.24-.08.45-.08.62,0,.65.26,1.17.8,1.57.58.44,1.18.65,1.83.65.44,0,.83-.08,1.15-.22.3-.14.56-.4.77-.76l6.51-11.24h27.29l6.14,10.58.36.57c.23.38.51.64.87.8ZM159.48,24.71l11.35-19.58,11.36,19.58h-22.71Z"/>
    <path class="cls-1" d="M99.34,31.83c.3.3,1.07.3,2.12.3h.42c1.05,0,1.82,0,2.12-.3.17-.17.26-.51.26-1.03V9.87C104.26,3.23,99.14,0,88.63,0h-31.37c-1.44,0-2.08.66-2.08,2.13,0,1.31.64,1.89,2.08,1.89h31.23c7.03,0,10.59,1.97,10.59,5.85v20.93c0,.52.08.86.26,1.04Z"/>
    <path class="cls-1" d="M90.14,40.88h31.79c10.61,0,15.76-3.44,15.76-10.52V9.87C137.69,3.23,132.58,0,122.07,0h-11.83c-1.44,0-2.08.66-2.08,2.13,0,1.33.62,1.89,2.08,1.89h11.69c7.03,0,10.59,1.97,10.59,5.85v20.5c0,4.31-3.61,6.49-10.73,6.49h-27.86V13.23c0-1.39-.59-1.77-2.72-1.77s-2.59.35-2.59,1.77v26.03c0,1.14.46,1.62,1.52,1.62Z"/>
    <path class="cls-1" d="M82.92,40.63c.23-.23.23-.84.23-1.6v-.32c0-.76,0-1.37-.23-1.6-.17-.17-.54-.25-1.11-.25h-20.82V13.23c0-1.63-.83-2.36-2.68-2.36s-2.63.73-2.63,2.36v26.03c0,1.13.46,1.62,1.53,1.62h24.6c.57,0,.95-.08,1.11-.25Z"/>
  </g>
</svg>